<svg xmlns="http://www.w3.org/2000/svg" xmlns:xlink="http://www.w3.org/1999/xlink" version="1.1" id="Layer_1" x="0px" y="0px" width="100px" height="100px" viewBox="0 0 100 100" enable-background="new 0 0 100 100" xml:space="preserve">
<path d="M57.021,44.2l41.186,7.489c0,0-8.133,0.901-10.857,0.936c-9.144,0.111-36.504-2.247-36.504-2.247" style="fill: #939393;"/>
<g>
	<g>
		<path d="M40.735,40.644c0,0-9.861-0.215-12.917-1.311c-0.635-0.228-2.247-1.497-2.247-1.497s-0.868-6.996-2.247-8.799    c-2.433-3.183-7.254-3.932-9.923-3.932c-4.493,0-7.867,2.94-9.547,5.055c-1.024,1.289-1.927,4.737-1.686,6.365    c0.75,5.054,4.71,6.544,7.115,7.488c2.751,1.08,11.794-0.749,11.794-0.749s3.793-0.486,5.055-0.374    c2.454,0.216,7.426,1.182,9.547,2.433c0.941,0.555,2.995,3.184,2.995,3.184l7.676-6.927L40.735,40.644z M20.142,37.647    c-1.199,1.643-5.454,3.223-7.487,3.183c-1.863-0.037-5.867-1.537-6.74-3.183c-0.709-1.34,0.129-4.707,0.937-5.99    c1.06-1.683,3.37-3.37,7.112-3.558c2.999-0.15,4.998,1.249,5.805,2.621C20.646,32.216,21.164,36.247,20.142,37.647z" style="fill: #939393;"/>
	</g>
</g>
<g>
	<g>
		<path d="M80.984,11.439c-1.873,1.124-29.018,26.396-29.018,26.396L39.798,50.19v2.434l-1.123,4.493L12.093,82.766    c0,0-1.79,2.262-1.871,3.182c-0.12,1.342,0.923,4.098,1.871,5.055c0.741,0.748,2.882,1.564,3.931,1.498    c4.138-0.268,11.553-5.053,14.603-7.863c3.036-2.797,8.189-9.802,8.986-13.853c0.34-1.729-1.527-5.179-1.31-6.927    c0.082-0.666,0.75-1.877,1.124-2.434c3.672-5.471,17.972-19.283,17.972-19.283L88.659,9.38    C88.659,9.38,82.688,10.417,80.984,11.439z M35.119,70.971c-1.042,3.186-3.859,9.569-6.364,11.795    c-2.861,2.537-11.066,7.768-14.229,5.615c-0.542-0.369-0.244-2.012,0-2.622c0.375-0.936,20.032-20.03,20.593-19.655    C36.132,66.777,35.498,69.814,35.119,70.971z M49,48.835c-1.041,0.621-2.313,0.402-2.842-0.487    c-0.529-0.888-0.114-2.11,0.928-2.729c1.04-0.621,2.312-0.401,2.841,0.487C50.456,46.994,50.042,48.217,49,48.835z" style="fill: #939393;"/>
	</g>
</g>
</svg>
